{"title":"Brandy-Aniston-Gets-Twat-Kissed-Then-Sucks-Guys-Dick[truehdporn]","uid":7520965,"size":435559951,"categoryP":"porn","categoryS":"movies","magnet":"?xt=urn:btih:5cd59b779e7d5cacd0d1496ae5598537d6c44dbb&amp;dn=Brandy-Aniston-Gets-Twat-Kissed-Then-Sucks-Guys-Dick%5Btruehdporn%5D&amp;tr=udp%3A%2F%2Ftracker.openbittorrent.com%3A80&amp;tr=udp%3A%2F%2Fopen.demonii.com%3A1337&amp;tr=udp%3A%2F%2Ftracker.coppersurfer.tk%3A6969&amp;tr=udp%3A%2F%2Fexodus.desync.com%3A6969","seeders":0,"leechers":1,"uploader":"hdporn","files":1,"time":1344627812,"description":"Format : MPEG-4\nFormat profile : Base Media\nCodec ID : isom\nFile size : 415 MiB\nDuration : 14mn 47s\nOverall bit rate : 3 925 Kbps\nVideo\nID : 1\nFormat : AVC\nFormat/Info : Advanced Video Codec\nFormat profile : &lt;a class=&quot;__cf_email__&quot; href=&quot;/cdn-cgi/l/email-protection&quot; data-cfemail=&quot;5d15343a351d1168736c&quot;&gt;[email&amp;#160;protected]&lt;/a&gt;&lt;script cf-hash='f9e31' type=&quot;text/javascript&quot;&gt;\n/* &lt;![CDATA[ */!function(){try{var t=&quot;currentScript&quot;in document?document.currentScript:function(){for(var t=document.getElementsByTagName(&quot;script&quot;),e=t.length;e--;)if(t[e].getAttribute(&quot;cf-hash&quot;))return t[e]}();if(t&amp;&amp;t.previousSibling){var e,r,n,i,c=t.previousSibling,a=c.getAttribute(&quot;data-cfemail&quot;);if(a){for(e=&quot;&quot;,r=parseInt(a.substr(0,2),16),n=2;a.length-n;n+=2)i=parseInt(a.substr(n,2),16)^r,e+=String.fromCharCode(i);e=document.createTextNode(e),c.parentNode.replaceChild(e,c)}}}catch(u){}}();/* ]]&gt; */&lt;/script&gt;\nFormat settings, CABAC : Yes\nFormat settings, ReFrames : 16 frames\nCodec ID : avc1\nCodec ID/Info : Advanced Video Coding\nDuration : 14mn 47s\nBit rate mode : Variable\nBit rate : 3 868 Kbps\nWidth : 1 920 pixels\nHeight : 1 080 pixels\nDisplay aspect ratio : 16:9\nFrame rate mode : Constant\nFrame rate : 29.970 fps\nColor space : YUV\nChroma subsampling : 4:2:0\nBit depth : 8 bits\nScan type : Progressive\nBits/(Pixel*Frame) : 0.062\nStream size : 408 MiB (98%)\nAudio\nID : 2\nFormat : AAC\nFormat/Info : Advanced Audio Codec\nFormat profile : LC\nCodec ID : 40\nDuration : 14mn 47s\nBit rate mode : Constant\nBit rate : 66.2 Kbps\nChannel(s) : 2 channels\nChannel positions : Front: L R\nSampling rate : 48.0 KHz\nCompression mode : Lossy\nStream size : 6.87 MiB (2%)","torrent":{"xt":"urn:btih:5cd59b779e7d5cacd0d1496ae5598537d6c44dbb","amp;dn":"Brandy-Aniston-Gets-Twat-Kissed-Then-Sucks-Guys-Dick%5Btruehdporn%5D","amp;tr":["udp%3A%2F%2Ftracker.openbittorrent.com%3A80","udp%3A%2F%2Fopen.demonii.com%3A1337","udp%3A%2F%2Ftracker.coppersurfer.tk%3A6969","udp%3A%2F%2Fexodus.desync.com%3A6969"],"infoHash":"5cd59b779e7d5cacd0d1496ae5598537d6c44dbb","infoHashBuffer":{"type":"Buffer","data":[92,213,155,119,158,125,92,172,208,209,73,106,229,89,133,55,214,196,77,187]},"announce":[],"urlList":[]}}